<?xml version="1.0" encoding="us-ascii" standalone="no"?><svg xmlns="http://www.w3.org/2000/svg" xmlns:xlink="http://www.w3.org/1999/xlink" contentStyleType="text/css" height="233px" preserveAspectRatio="none" style="width:794px;height:233px;background:#FFFFFF;" version="1.1" viewBox="0 0 794 233" width="794px" zoomAndPan="magnify"><defs/><g><!--cluster Health Monitoring System--><g id="cluster_Health Monitoring System"><path d="M8.5,6 L221.5,6 A3.75,3.75 0 0 1 224,8.5 L231,28.2969 L784.5,28.2969 A2.5,2.5 0 0 1 787,30.7969 L787,223.5 A2.5,2.5 0 0 1 784.5,226 L8.5,226 A2.5,2.5 0 0 1 6,223.5 L6,8.5 A2.5,2.5 0 0 1 8.5,6 " fill="none" style="stroke:#000000;stroke-width:1.5;"/><line style="stroke:#000000;stroke-width:1.5;" x1="6" x2="231" y1="28.2969" y2="28.2969"/><text fill="#000000" font-family="sans-serif" font-size="14" font-weight="bold" lengthAdjust="spacing" textLength="212" x="10" y="20.9951">Health Monitoring System</text></g><!--entity HMS--><g id="elem_HMS"><rect fill="#F1F1F1" height="46.2969" rx="2.5" ry="2.5" style="stroke:#181818;stroke-width:0.5;" width="227" x="252.5" y="41"/><rect fill="#F1F1F1" height="10" style="stroke:#181818;stroke-width:0.5;" width="15" x="459.5" y="46"/><rect fill="#F1F1F1" height="2" style="stroke:#181818;stroke-width:0.5;" width="4" x="457.5" y="48"/><rect fill="#F1F1F1" height="2" style="stroke:#181818;stroke-width:0.5;" width="4" x="457.5" y="52"/><text fill="#000000" font-family="sans-serif" font-size="14" lengthAdjust="spacing" textLength="187" x="267.5" y="73.9951">Health Monitoring System</text></g><!--entity WD--><g id="elem_WD"><rect fill="#F1F1F1" height="46.2969" rx="2.5" ry="2.5" style="stroke:#181818;stroke-width:0.5;" width="161" x="22.5" y="164"/><rect fill="#F1F1F1" height="10" style="stroke:#181818;stroke-width:0.5;" width="15" x="163.5" y="169"/><rect fill="#F1F1F1" height="2" style="stroke:#181818;stroke-width:0.5;" width="4" x="161.5" y="171"/><rect fill="#F1F1F1" height="2" style="stroke:#181818;stroke-width:0.5;" width="4" x="161.5" y="175"/><text fill="#000000" font-family="sans-serif" font-size="14" lengthAdjust="spacing" textLength="121" x="37.5" y="196.9951">Wearable Device</text></g><!--entity EC--><g id="elem_EC"><rect fill="#F1F1F1" height="46.2969" rx="2.5" ry="2.5" style="stroke:#181818;stroke-width:0.5;" width="160" x="219" y="164"/><rect fill="#F1F1F1" height="10" style="stroke:#181818;stroke-width:0.5;" width="15" x="359" y="169"/><rect fill="#F1F1F1" height="2" style="stroke:#181818;stroke-width:0.5;" width="4" x="357" y="171"/><rect fill="#F1F1F1" height="2" style="stroke:#181818;stroke-width:0.5;" width="4" x="357" y="175"/><text fill="#000000" font-family="sans-serif" font-size="14" lengthAdjust="spacing" textLength="120" x="234" y="196.9951">Edge Computing</text></g><!--entity API--><g id="elem_API"><rect fill="#F1F1F1" height="46.2969" rx="2.5" ry="2.5" style="stroke:#181818;stroke-width:0.5;" width="162" x="414" y="164"/><rect fill="#F1F1F1" height="10" style="stroke:#181818;stroke-width:0.5;" width="15" x="556" y="169"/><rect fill="#F1F1F1" height="2" style="stroke:#181818;stroke-width:0.5;" width="4" x="554" y="171"/><rect fill="#F1F1F1" height="2" style="stroke:#181818;stroke-width:0.5;" width="4" x="554" y="175"/><text fill="#000000" font-family="sans-serif" font-size="14" lengthAdjust="spacing" textLength="122" x="429" y="196.9951">Google Fitbit API</text></g><!--entity WA--><g id="elem_WA"><rect fill="#F1F1F1" height="46.2969" rx="2.5" ry="2.5" style="stroke:#181818;stroke-width:0.5;" width="160" x="611" y="164"/><rect fill="#F1F1F1" height="10" style="stroke:#181818;stroke-width:0.5;" width="15" x="751" y="169"/><rect fill="#F1F1F1" height="2" style="stroke:#181818;stroke-width:0.5;" width="4" x="749" y="171"/><rect fill="#F1F1F1" height="2" style="stroke:#181818;stroke-width:0.5;" width="4" x="749" y="175"/><text fill="#000000" font-family="sans-serif" font-size="14" lengthAdjust="spacing" textLength="120" x="626" y="196.9951">Web Application</text></g><!--link HMS to WD--><g id="link_HMS_WD"><path d="M252.384,80.612 C221.152,88.325 188.374,99.834 161,117 C142.306,128.723 129.9568,143.4841 119.6268,158.8548 " fill="none" id="HMS-to-WD" style="stroke:#181818;stroke-width:1.0;"/><polygon fill="#181818" points="116.28,163.8347,124.6201,158.5961,119.069,159.6848,117.9802,154.1337,116.28,163.8347" style="stroke:#181818;stroke-width:1.0;"/><text fill="#000000" font-family="sans-serif" font-size="13" lengthAdjust="spacing" textLength="101" x="162" y="130.0669">dataCollection()</text></g><!--link HMS to EC--><g id="link_HMS_EC"><path d="M306.466,87.087 C293.933,94.61 282.306,104.41 275,117 C266.47,131.699 270.3121,144.7984 278.8981,158.8222 " fill="none" id="HMS-to-EC" style="stroke:#181818;stroke-width:1.0;"/><polygon fill="#181818" points="282.031,163.9393,280.743,154.175,279.4202,159.675,273.9202,158.3523,282.031,163.9393" style="stroke:#181818;stroke-width:1.0;"/><text fill="#000000" font-family="sans-serif" font-size="13" lengthAdjust="spacing" textLength="135" x="276" y="130.0669">realTimeProcessing()</text></g><!--link HMS to WA--><g id="link_HMS_WA"><path d="M479.778,79.564 C519.687,87.37 564.009,99.199 602,117 C626.963,128.696 646.9833,144.4077 663.9253,159.786 " fill="none" id="HMS-to-WA" style="stroke:#181818;stroke-width:1.0;"/><polygon fill="#181818" points="668.368,163.8187,664.3924,154.8079,664.6657,160.4582,659.0155,160.7315,668.368,163.8187" style="stroke:#181818;stroke-width:1.0;"/><text fill="#000000" font-family="sans-serif" font-size="13" lengthAdjust="spacing" textLength="119" x="629" y="130.0669">dataVisualization()</text></g><!--link HMS to API--><g id="link_HMS_API"><path d="M389.661,87.193 C412.936,109.026 443.8899,138.0591 467.1129,159.8426 " fill="none" id="HMS-to-API" style="stroke:#181818;stroke-width:1.0;"/><polygon fill="#181818" points="471.489,163.9474,467.6614,154.8727,467.8422,160.5267,462.1883,160.7075,471.489,163.9474" style="stroke:#181818;stroke-width:1.0;"/><text fill="#000000" font-family="sans-serif" font-size="13" lengthAdjust="spacing" textLength="153" x="440" y="130.0669">googleFitbitIntegration()</text></g><!--SRC=[TOwzQiD03CTtFuNmr0n-0Gy5uxXrXa0WfHv21laihg9ddxbJ2ctfkqVrDQ44eaN3x_yretb7Iv2tX4xUOEid5Xzuih3_Z49Z3jyPw1tk2Ow04ThjFgawme2z8rZJ1njQOBTEh1cqgFRZV1ArBwYf4thstghfYQLdWMgtMQZ-IseFrJmxDYZifvHQPJzPfiLG58_QKSA0WhLtZiolw65rXKrTGj3vBppIBdX3CUg0VuAkIkvNZYTq_8Kt0Jga1BjiJ1Ctav0DVx8p]--></g></svg>